#!OML:ASF F:\VICON\USERDATA\INSTALL\rory3\rory3.ASF
:FULLY-SPECIFIED
:DEGREES
377
root 12.7687 17.6899 12.551 235.712 86.3397 236.816
lowerback 11.1328 3.71684 3.2191
upperback 0.365087 5.396 0.258192
thorax -5.57488 2.58592 -2.37193
lowerneck -19.2272 -5.90703 -11.6733
upperneck 32.1412 -6.21409 7.01233
head 15.0712 -2.83876 3.85632
rclavicle 7.05561e-014 -1.2921e-015
rhumerus -25.3926 -8.51156 -82.7768
rradius 35.0312
rwrist 4.12017
rhand -15.119 10.2457
rfingers 7.12502
rthumb 11.05 -19.4434
lclavicle 7.05561e-014 -1.2921e-015
lhumerus -40.9785 12.904 76.3069
lradius 25.6757
lwrist -11.093
lhand -18.2295 27.6365
lfingers 7.12502
lthumb 8.04888 57.4632
rfemur 11.9252 4.65078 28.0224
rtibia 21.5568
rfoot -15.1181 -6.16449
rtoes -11.8113
lfemur -22.674 -3.18704 -17.0259
ltibia 17.2301
lfoot -0.0515377 -0.853888
ltoes -8.61489
378
root 12.9255 17.6985 12.5238 230.414 86.7788 231.576
lowerback 11.1773 3.76364 2.66593
upperback 0.340488 5.37811 0.0886001
thorax -5.66038 2.5864 -2.2447
lowerneck -19.1891 -5.94359 -11.8518
upperneck 32.3033 -6.26595 7.19257
head 15.1619 -2.85618 3.96278
rclavicle 2.66434e-014 9.93923e-015
rhumerus -25.5204 -8.70265 -82.8418
rradius 35.0841
rwrist 4.0293
rhand -14.9952 10.1448
rfingers 7.12502
rthumb 11.1694 -19.5379
lclavicle 2.66434e-014 9.93923e-015
lhumerus -40.9876 13.3447 76.0729
lradius 25.3289
lwrist -11.9093
lhand -18.269 27.563
lfingers 7.12502
lthumb 8.01068 57.3912
rfemur 11.6373 4.96991 27.5659
rtibia 23.305
rfoot -14.6389 -6.50557
rtoes -13.3401
lfemur -22.0833 -2.7755 -17.8692
ltibia 16.9226
lfoot 0.996293 -2.16862
ltoes -8.80379
379
root 13.0839 17.7095 12.4991 223.088 87.073 224.269
lowerback 11.0878 3.76275 2.13393
upperback 0.364151 5.29808 -0.0433801
thorax -5.62451 2.56046 -2.06761
lowerneck -19.1288 -5.91779 -11.6999
upperneck 32.3029 -6.24979 7.08536
head 15.1336 -2.84531 3.8941
rclavicle -4.4155e-014 6.26172e-015
rhumerus -25.5555 -8.99206 -82.8942
rradius 35.0432
rwrist 4.04126
rhand -15.0009 10.0148
rfingers 7.12502
rthumb 11.1639 -19.6682
lclavicle -4.4155e-014 6.26172e-015
lhumerus -40.8613 13.5991 75.9727
lradius 24.9518
lwrist -12.323
lhand -18.169 27.0506
lfingers 7.12502
lthumb 8.10719 56.8751
rfemur 11.1692 5.01125 27.0884
rtibia 25.3013
rfoot -14.1285 -6.58487
rtoes -14.21
lfemur -21.4651 -2.68589 -18.534
ltibia 16.5741
lfoot 1.99552 -3.02699
ltoes -5.94122
380
root 13.2412 17.7206 12.4751 214.898 87.2465 216.156
lowerback 11.0323 3.74995 1.69577
upperback 0.435032 5.21816 -0.151679
thorax -5.55092 2.53379 -1.9181
lowerneck -19.1016 -5.89711 -11.4938
upperneck 32.2836 -6.23731 6.91915
head 15.0994 -2.83753 3.78878
rclavicle -7.65818e-014 8.05078e-015
rhumerus -25.5991 -9.41264 -82.8908
rradius 35.0248
rwrist 4.18855
rhand -14.8901 9.86271
rfingers 7.12502
rthumb 11.2708 -19.8145
lclavicle -7.65818e-014 8.05078e-015
lhumerus -40.6603 13.7532 76.0033
lradius 24.61
lwrist -12.5163
lhand -18.246 27.252
lfingers 7.12502
lthumb 8.03287 57.0793
rfemur 10.6483 4.73584 26.555
rtibia 27.3935
rfoot -13.4712 -6.4119
rtoes -14.3566
lfemur -20.8774 -1.80622 -19.3511
ltibia 16.4265
lfoot 2.83262 -4.33392
ltoes -6.39604
381
root 13.3967 17.7386 12.4459 203.724 87.3441 205.085
lowerback 11.0486 3.731 1.34633
upperback 0.473452 5.13704 -0.375506
thorax -5.53239 2.50121 -1.94463
lowerneck -18.9932 -5.90828 -11.4293
upperneck 32.2895 -6.29952 6.95752
head 15.0835 -2.85049 3.78387
rclavicle -8.97016e-015 3.18055e-015
rhumerus -25.7819 -9.84396 -83.0043
rradius 35.0442
rwrist 4.20895
rhand -14.6803 9.74756
rfingers 7.12502
rthumb 11.4731 -19.9185
lclavicle -8.97016e-015 3.18055e-015
lhumerus -40.519 13.9645 75.8246
lradius 24.3105
lwrist -12.972
lhand -18.3812 27.5719
lfingers 7.12502
lthumb 7.90242 57.4042
rfemur 10.0505 4.26116 25.8303
rtibia 29.5575
rfoot -12.4535 -6.11371
rtoes -14.9028
lfemur -20.304 -0.957777 -20.2311
ltibia 16.5
lfoot 3.13989 -5.18481
ltoes -6.15342
382
root 13.551 17.7627 12.4122 195.711 87.2402 197.111
lowerback 11.0368 3.65007 1.19171
upperback 0.464964 5.0003 -0.552257
thorax -5.53694 2.43587 -2.0218
lowerneck -18.9134 -5.8961 -11.3947
upperneck 32.3513 -6.32667 7.03661
head 15.099 -2.84586 3.81063
rclavicle -3.32467e-014 -5.96354e-016
rhumerus -26.0021 -9.94403 -83.1927
rradius 35.0471
rwrist 3.91967
rhand -14.9484 9.84638
rfingers 7.12502
rthumb 11.2145 -19.8339
lclavicle -3.32467e-014 -5.96354e-016
lhumerus -40.4744 14.2248 75.581
lradius 24.0966
lwrist -13.5376
lhand -17.8343 27.5794
lfingers 7.12502
lthumb 8.43029 57.3912
rfemur 9.26584 3.75933 25.2555
rtibia 31.8623
rfoot -11.1384 -5.65924
rtoes -15.5734
lfemur -19.7718 -0.976444 -20.6827
ltibia 16.6141
lfoot 3.24185 -4.80995
ltoes -2.9502
383
root 13.7071 17.7846 12.3815 196.838 87.0021 198.383
lowerback 11.0947 3.507 1.37153
upperback 0.49649 4.83706 -0.496085
thorax -5.53237 2.35216 -2.04143
lowerneck -18.886 -5.84898 -11.4509
upperneck 32.3886 -6.23153 7.01981
head 15.1003 -2.81501 3.83346
rclavicle 4.64038e-014 -2.98177e-015
rhumerus -26.1454 -9.80636 -83.3739
rradius 35.0022
rwrist 3.41403
rhand -15.6879 9.88126
rfingers 7.12502
rthumb 10.5012 -19.8364
lclavicle 4.64038e-014 -2.98177e-015
lhumerus -40.481 14.519 75.5486
lradius 24.0084
lwrist -13.9446
lhand -17.0245 27.5948
lfingers 7.12502
lthumb 9.21169 57.3735
rfemur 8.43346 3.29006 25.2016
rtibia 34.3403
rfoot -9.55596 -5.1209
rtoes -15.516
lfemur -19.1239 -0.468228 -20.8083
ltibia 16.6144
lfoot 3.12417 -5.167
ltoes -4.18924
384
root 13.8625 17.8038 12.3514 195.095 86.7931 196.92
lowerback 11.2418 3.38451 1.45126
upperback 0.600567 4.68788 -0.500731
thorax -5.50407 2.27898 -2.07403
lowerneck -18.8527 -5.82785 -11.4566
upperneck 32.3843 -6.17997 6.96016
head 15.0821 -2.80283 3.81878
rclavicle 3.762e-014 -2.18663e-015
rhumerus -26.2722 -9.7901 -83.5964
rradius 35.0208
rwrist 2.9739
rhand -16.1548 9.26596
rfingers 7.12502
rthumb 10.0508 -20.474
lclavicle 3.762e-014 -2.18663e-015
lhumerus -40.3929 14.883 75.4484
lradius 23.8401
lwrist -14.534
lhand -17.5329 27.8183
lfingers 7.12502
lthumb 8.72113 57.6181
rfemur 7.60271 2.7726 24.9905
rtibia 36.9498
rfoot -7.46633 -4.67138
rtoes -15.4827
lfemur -18.3311 0.492667 -21.2316
ltibia 16.5426
lfoot 2.88541 -6.34341
ltoes -7.81242
385
root 14.0134 17.8285 12.3138 185.507 86.7068 187.468
lowerback 11.2888 3.32616 1.10597
upperback 0.657905 4.55932 -0.666047
thorax -5.48834 2.22394 -2.03556
lowerneck -18.8379 -5.8707 -11.4428
upperneck 32.4909 -6.2241 6.8952
head 15.1313 -2.82784 3.78466
rclavicle -6.39217e-014 7.95139e-015
rhumerus -26.4013 -9.97873 -83.6839
rradius 34.9738
rwrist 2.90951
rhand -15.766 9.09483
rfingers 7.12502
rthumb 10.4259 -20.6267
lclavicle -6.39217e-014 7.95139e-015
lhumerus -40.2991 14.6873 75.5898
lradius 23.8566
lwrist -14.3978
lhand -18.137 27.6511
lfingers 7.12502
lthumb 8.13807 57.4744
rfemur 6.50566 2.21112 24.0588
rtibia 39.6551
rfoot -5.04889 -3.86948
rtoes -12.6073
lfemur -17.5742 0.710456 -22.049
ltibia 16.3834
lfoot 2.76255 -6.89298
ltoes -8.35215
386
root 14.1613 17.855 12.2751 177.218 86.5765 179.328
lowerback 11.3651 3.26506 0.799534
upperback 0.735474 4.43488 -0.794924
thorax -5.4668 2.17072 -1.98223
lowerneck -18.837 -5.87687 -11.547
upperneck 32.545 -6.21161 6.944
head 15.1624 -2.82849 3.82849
rclavicle 2.88486e-014 2.38542e-015
rhumerus -26.4827 -10.2508 -83.6901
rradius 34.9107
rwrist 2.95829
rhand -15.1692 9.22944
rfingers 7.12502
rthumb 11.0015 -20.4623
lclavicle 2.88486e-014 2.38542e-015
lhumerus -40.1267 14.1436 76.049
lradius 23.9908
lwrist -13.7282
lhand -17.1005 27.1453
lfingers 7.12502
lthumb 9.13839 56.9274
rfemur 5.31332 1.69519 23.0889
rtibia 42.3997
rfoot -2.27835 -3.18138
rtoes -7.92997
lfemur -16.6589 0.404733 -22.6704
ltibia 16.0312
lfoot 3.06006 -6.93768
ltoes -4.30958
387
root 14.3061 17.8737 12.2372 173.103 86.4194 175.413
lowerback 11.4674 3.16282 0.682145
upperback 0.847966 4.28484 -0.845559
thorax -5.41527 2.10191 -1.94858
lowerneck -18.8537 -5.83815 -11.6139
upperneck 32.5245 -6.1263 6.93552
head 15.1487 -2.80274 3.85164
rclavicle 2.13694e-015 7.95139e-016
rhumerus -26.5615 -10.3916 -83.7532
rradius 34.9046
rwrist 3.02636
rhand -14.9276 9.05062
rfingers 7.12502
rthumb 11.2346 -20.6285
lclavicle 2.13694e-015 7.95139e-016
lhumerus -39.8722 14.0079 76.3501
lradius 23.9474
lwrist -13.579
lhand -16.3252 26.8102
lfingers 7.12502
lthumb 9.88638 56.5581
rfemur 4.06728 1.17947 22.4258
rtibia 45.0891
rfoot 0.842778 -2.82133
rtoes -5.69303
lfemur -15.7178 0.408624 -23.1486
ltibia 15.5817
lfoot 3.37785 -7.14187
ltoes -1.56942
388
root 14.4483 17.8834 12.2 166.792 86.2539 169.282
lowerback 11.6005 3.05371 0.336038
upperback 0.925342 4.09556 -0.897678
thorax -5.43475 2.01755 -1.78598
lowerneck -18.8658 -5.77842 -11.6029
upperneck 32.4981 -5.99162 6.79389
head 15.1159 -2.76518 3.81307
rclavicle 3.32219e-014 -2.88238e-015
rhumerus -26.665 -10.1519 -83.8286
rradius 34.8675
rwrist 3.2081
rhand -14.7067 8.88212
rfingers 7.12502
rthumb 11.4476 -20.7853
lclavicle 3.32219e-014 -2.88238e-015
lhumerus -39.6719 13.835 76.695
lradius 23.8886
lwrist -13.5416
lhand -16.6323 26.7048
lfingers 7.12502
lthumb 9.59016 56.4665
rfemur 2.76971 0.567937 21.5386
rtibia 47.6715
rfoot 3.86833 -1.84601
rtoes -6.95131
lfemur -14.8459 0.770529 -23.9147
ltibia 15.1595
lfoot 3.32014 -7.56545
ltoes -3.55554
389
root 14.5903 17.8984 12.1673 159.456 86.0967 162.045
lowerback 11.6548 3.01826 -0.140192
upperback 0.971545 3.9846 -0.979922
thorax -5.44603 1.97417 -1.59021
lowerneck -18.7641 -5.72112 -11.5859
upperneck 32.3897 -5.87306 6.64743
head 15.0208 -2.73522 3.76614
rclavicle -2.30777e-014 4.07509e-015
rhumerus -26.7928 -9.73742 -83.908
rradius 34.8642
rwrist 3.10713
rhand -14.6403 9.09975
rfingers 7.12502
rthumb 11.5117 -20.5641
lclavicle -2.30777e-014 4.07509e-015
lhumerus -39.4791 13.1069 77.2948
lradius 24.0848
lwrist -12.9325
lhand -16.6436 26.7265
lfingers 7.12502
lthumb 9.57926 56.4888
rfemur 1.40846 0.159802 20.5801
rtibia 50.1406
rfoot 6.35062 -0.583258
rtoes -7.40206
lfemur -13.9971 1.08066 -24.6301
ltibia 14.7179
lfoot 3.33339 -7.89507
ltoes -3.34528
390
root 14.7337 17.9245 12.1347 153.131 85.9766 155.862
lowerback 11.7436 3.01271 -0.463376
upperback 1.02971 3.931 -1.10882
thorax -5.44789 1.95544 -1.53913
lowerneck -18.7233 -5.68933 -11.5836
upperneck 32.4041 -5.79562 6.55254
head 15.0052 -2.71559 3.74084
rclavicle -4.00613e-014 9.34288e-015
rhumerus -26.8555 -9.65032 -84.0189
rradius 34.7994
rwrist 3.03622
rhand -14.4257 9.1933
rfingers 7.12502
rthumb 11.7186 -20.4589
lclavicle -4.00613e-014 9.34288e-015
lhumerus -39.1704 12.3607 77.8154
lradius 24.1964
lwrist -12.2948
lhand -16.1389 26.1934
lfingers 7.12502
lthumb 10.0661 55.9327
rfemur 0.0710327 0.000558189 19.7584
rtibia 52.505
rfoot 8.38222 0.488562
rtoes -4.75195
lfemur -13.0177 0.875011 -25.0978
ltibia 14.2674
lfoot 3.64786 -7.6348
ltoes 1.41772
391
root 14.8787 17.9426 12.0989 146.798 85.9861 149.813
lowerback 11.924 3.02838 -0.59746
upperback 1.11891 3.92726 -1.3043
thorax -5.44946 1.95708 -1.67565
lowerneck -18.7529 -5.64748 -11.4603
upperneck 32.5984 -5.74813 6.4979
head 15.0888 -2.68538 3.71336
rclavicle 9.00743e-015 -6.65929e-015
rhumerus -26.9004 -9.6817 -84.266
rradius 34.681
rwrist 3.2549
rhand -14.3098 9.18286
rfingers 7.12502
rthumb 11.8304 -20.463
lclavicle 9.00743e-015 -6.65929e-015
lhumerus -38.7912 11.5876 78.1563
lradius 24.1834
lwrist -11.9898
lhand -15.7525 25.6159
lfingers 7.12502
lthumb 10.4389 55.3367
rfemur -1.12334 -0.0365618 19.018
rtibia 54.7943
rfoot 9.77721 1.24646
rtoes -0.250974
lfemur -11.9278 0.625278 -25.5141
ltibia 13.9232
lfoot 3.82772 -7.15964
ltoes 5.26945
